<?xml version="1.0" encoding="utf-8"?>
<!-- Generator: Adobe Illustrator 25.2.0, SVG Export Plug-In . SVG Version: 6.00 Build 0)  -->
<svg version="1.1" id="Layer_1" xmlns="http://www.w3.org/2000/svg" xmlns:xlink="http://www.w3.org/1999/xlink" x="0px" y="0px"
	 viewBox="0 0 111.6 111.6" style="enable-background:new 0 0 111.6 111.6;" xml:space="preserve">
<style type="text/css">
	.st0{fill:#0E698B;}
	.st1{fill:#040533;}
	.st2{fill:#F5F4E9;}
</style>
<g>
	<circle class="st0" cx="56.1" cy="56.1" r="54.9"/>
	<circle class="st1" cx="56.1" cy="56.5" r="25.7"/>
	<g>
		<path class="st2" d="M46.4,42.8h2.2v4.4l3.5-4.4h2.5L51,47.2l3.7,6.8h-2.5l-2.7-5l-1,1.2V54h-2.2V42.8z"/>
	</g>
	<g>
		<path class="st2" d="M58.1,44.7v-2h6.7v2h-2.2V52h2.2v2h-6.7v-2h2.2v-7.3H58.1z"/>
	</g>
	<g>
		<path class="st2" d="M51.2,69.1H49v-9.3h-2.8v-1.9h7.9v1.9h-2.8V69.1z"/>
	</g>
	<g>
		<path class="st2" d="M60.1,57.9h2.7l3,11.2h-2.2L63,66.3h-3l-0.7,2.8h-2.2L60.1,57.9z M61.5,59.9l-1,4.6h2.1L61.5,59.9z"/>
	</g>
</g>
</svg>
